# xmcd
#
# Track frame offsets:
#	150
#	23917
#	42692
#	59162
#	77075
#	98857
#	117262
#	132265
#	156557
#	166187
#	179502
#	193030
#	214210
#	232705
#	245205
#	281190
#
# Disc length: 4270 seconds
#
# Revision: 2
# Processed by: cddbd v1.5.2PL0 Copyright (c) Steve Scherf et al.
# Submitted via: audiograbber 1.83.01
#
DISCID=f310ac10
DTITLE=Various Artist - The Blues
DYEAR=1900
DGENRE=Blues
TTITLE0=Muddy Waters - Mannish Boy
TTITLE1=B.B. King - Into the night
TTITLE2=Stevie Ray Vaughan - Pride and joy
TTITLE3=John Mayall - Mail Order Mystic
TTITLE4=George Thorogood and The Destroyers - Bad to the bone
TTITLE5=Robert Cray - Smoking gun
TTITLE6=The Fabulous Thunderbirds - Tuff enuff
TTITLE7=Johnny Winter - Don't take advantage of me
TTITLE8=Eric Clapton - Tribute to Elmore
TTITLE9=Taj Mahal - Statesboro blues
TTITLE10=Otis Rush - Somebody have mercy
TTITLE11=Buddy Guy and Jeff Beck - Mustang Sally
TTITLE12=Otis Grand - No Reason
TTITLE13=Fleetwood Mac - Black magic woman
TTITLE14=Rory Gallagher - Ghost Blues
TTITLE15=The Allman Brothers Band - Stormy Monday
EXTD=
EXTT0=Muddy Waters\n
EXTT1=B.B.King\n
EXTT2=Stevie Ray Vaughn\n
EXTT3=John Mayall\n
EXTT4=George Thorogood\n
EXTT5=Robert Cray\n
EXTT6=Fabulous Thunderbirds\n
EXTT7=Johnny Winter\n
EXTT8=Eric Clapton\n
EXTT9=Taj Mahal\n
EXTT10=Otis Rush\n
EXTT11=Buddy Guy with Jeff Beck\n
EXTT12=Otis Grand\n
EXTT13=Fleetwood Mac\n
EXTT14=Rory Gallagher\n
EXTT15=The Allman Brothers Band\n
PLAYORDER=
